<svg width="900" height="900" viewBox="0 0 900 900" fill="none" xmlns="http://www.w3.org/2000/svg">
<g clip-path="url(#clip0_7_2)">
<g clip-path="url(#clip1_7_2)">
<path d="M1011 1169H-14V384H1011V1169Z" fill="#F7BE4B"/>
<path d="M-14 452.82L3.8 440.737C21.6 428.761 57.2 404.594 92.8 398.661C128.4 392.727 164 405.026 199.6 419.591C235.2 434.156 270.8 450.986 306.4 462.53C342 474.074 377.6 480.116 413.2 467.061C448.8 453.899 484.4 421.533 520 422.072C555.6 422.612 591.2 456.057 626.8 479.253C662.4 502.448 698 515.395 733.6 522.731C769.2 530.175 804.8 531.902 840.4 506.009C876 480.116 911.6 426.603 947.2 402.652C982.8 378.701 1018.4 384.527 1036.2 387.332L1054 390.245V127H1036.2C1018.4 127 982.8 127 947.2 127C911.6 127 876 127 840.4 127C804.8 127 769.2 127 733.6 127C698 127 662.4 127 626.8 127C591.2 127 555.6 127 520 127C484.4 127 448.8 127 413.2 127C377.6 127 342 127 306.4 127C270.8 127 235.2 127 199.6 127C164 127 128.4 127 92.8 127C57.2 127 21.6 127 3.8 127H-14V452.82Z" fill="#FFECC5"/>
<path d="M-14 393.91L5.01944 382.22C23.925 370.53 61.9639 347.15 99.8889 348.514C137.814 349.683 175.853 375.791 213.778 370.53C251.703 365.27 289.742 329.031 327.667 322.406C365.592 315.977 403.631 339.357 441.556 342.669C479.481 345.786 517.519 329.031 555.444 333.512C593.369 337.993 631.408 364.101 669.333 366.633C707.258 369.166 745.297 348.514 783.222 341.305C821.147 334.096 859.186 340.721 897.111 351.047C935.036 361.373 973.075 375.791 991.98 382.805L1011 390.013V-62H991.98C973.075 -62 935.036 -62 897.111 -62C859.186 -62 821.147 -62 783.222 -62C745.297 -62 707.258 -62 669.333 -62C631.408 -62 593.369 -62 555.444 -62C517.519 -62 479.481 -62 441.556 -62C403.631 -62 365.592 -62 327.667 -62C289.742 -62 251.703 -62 213.778 -62C175.853 -62 137.814 -62 99.8889 -62C61.9639 -62 23.925 -62 5.01944 -62H-14V393.91Z" fill="#86A1F4"/>
<path d="M-26 232.612L-6.98056 233.196C11.925 233.975 49.9639 235.144 87.8889 238.067C125.814 240.989 163.853 245.665 201.778 251.705C239.703 257.94 277.742 265.733 315.667 268.656C353.592 271.578 391.631 269.63 429.556 276.839C467.481 283.853 505.519 300.219 543.444 308.207C581.369 316.39 619.408 316.39 657.333 309.181C695.258 302.167 733.297 287.749 771.222 282.879C809.147 278.008 847.186 282.684 885.111 278.982C923.036 275.475 961.075 263.785 979.98 257.94L999 252.095V-46H979.98C961.075 -46 923.036 -46 885.111 -46C847.186 -46 809.147 -46 771.222 -46C733.297 -46 695.258 -46 657.333 -46C619.408 -46 581.369 -46 543.444 -46C505.519 -46 467.481 -46 429.556 -46C391.631 -46 353.592 -46 315.667 -46C277.742 -46 239.703 -46 201.778 -46C163.853 -46 125.814 -46 87.8889 -46C49.9639 -46 11.925 -46 -6.98056 -46H-26V232.612Z" fill="#6881D0"/>
<path d="M-5 232.663L14.0194 229.741C32.925 226.818 70.9639 220.973 108.889 222.337C146.814 223.506 184.853 232.079 222.778 222.532C260.703 213.18 298.742 185.903 336.667 174.798C374.592 163.887 412.631 168.953 450.556 174.798C488.481 180.643 526.519 187.267 564.444 186.488C602.369 185.903 640.408 178.11 678.333 182.591C716.258 187.267 754.297 204.023 792.222 209.868C830.147 215.713 868.186 210.647 906.111 200.906C944.036 191.164 982.075 176.746 1000.98 169.732L1020 162.523V-44H1000.98C982.075 -44 944.036 -44 906.111 -44C868.186 -44 830.147 -44 792.222 -44C754.297 -44 716.258 -44 678.333 -44C640.408 -44 602.369 -44 564.444 -44C526.519 -44 488.481 -44 450.556 -44C412.631 -44 374.592 -44 336.667 -44C298.742 -44 260.703 -44 222.778 -44C184.853 -44 146.814 -44 108.889 -44C70.9639 -44 32.925 -44 14.0194 -44H-5V232.663Z" fill="#4A62AD"/>
<path d="M-14 150.782L5.01944 151.171C23.925 151.366 61.9639 152.146 99.8889 143.378C137.814 134.611 175.853 116.296 213.778 106.554C251.703 96.8128 289.742 95.6438 327.667 104.996C365.592 114.348 403.631 134.61 441.556 148.444C479.481 162.472 517.519 170.265 555.444 164.03C593.369 157.99 631.408 137.728 669.333 127.012C707.258 116.296 745.297 115.127 783.222 122.921C821.147 130.714 859.186 147.469 897.111 146.495C935.036 145.521 973.075 126.817 991.98 117.27L1011 107.918V-46H991.98C973.075 -46 935.036 -46 897.111 -46C859.186 -46 821.147 -46 783.222 -46C745.297 -46 707.258 -46 669.333 -46C631.408 -46 593.369 -46 555.444 -46C517.519 -46 479.481 -46 441.556 -46C403.631 -46 365.592 -46 327.667 -46C289.742 -46 251.703 -46 213.778 -46C175.853 -46 137.814 -46 99.8889 -46C61.9639 -46 23.925 -46 5.01944 -46H-14V150.782Z" fill="#2B458B"/>
<path d="M-14 68.9517L5.01944 69.3414C23.925 69.5362 61.9639 70.3155 99.8889 65.055C137.814 59.7945 175.853 48.8838 213.778 49.0787C251.703 49.4683 289.742 61.1584 327.667 63.4964C365.592 65.6396 403.631 58.6255 441.556 59.21C479.481 59.7945 517.519 68.3672 555.444 64.4706C593.369 60.5739 631.408 44.2079 669.333 45.9614C707.258 47.5201 745.297 67.0033 783.222 65.6395C821.147 64.4705 859.186 42.2595 897.111 43.6234C935.036 44.9872 973.075 69.5362 991.98 82.0056L1011 94.28V-46H991.98C973.075 -46 935.036 -46 897.111 -46C859.186 -46 821.147 -46 783.222 -46C745.297 -46 707.258 -46 669.333 -46C631.408 -46 593.369 -46 555.444 -46C517.519 -46 479.481 -46 441.556 -46C403.631 -46 365.592 -46 327.667 -46C289.742 -46 251.703 -46 213.778 -46C175.853 -46 137.814 -46 99.8889 -46C61.9639 -46 23.925 -46 5.01944 -46H-14V68.9517Z" fill="#002A6A"/>
<g opacity="0.5" clip-path="url(#clip2_7_2)">
<path d="M221.3 696.9C224.6 707 220.2 719.6 211.4 725.9C202.6 732.3 189.3 732.3 180.9 726.1C172.4 719.9 168.7 707.4 172 697.4C175.3 687.3 185.7 679.8 196.3 679.7C207 679.6 218 686.9 221.3 696.9Z" fill="#FFECC5" fill-opacity="0.39"/>
<path d="M506.2 574.2C508.8 582.3 505.1 592.3 498 597.5C490.8 602.7 480.3 603.1 473.1 598.1C466 593 462.4 582.6 465.1 574.3C467.9 565.9 476.9 559.7 485.9 559.7C494.8 559.8 503.7 566.1 506.2 574.2Z" fill="#FFECC5"/>
<path d="M872.3 461.4C875 470.3 870.8 481.1 862.8 486.9C854.9 492.8 843.1 493.7 835.8 488.4C828.4 483.1 825.5 471.6 828.6 462.3C831.7 452.9 840.9 445.8 850.3 445.7C859.7 445.6 869.5 452.6 872.3 461.4Z" fill="#FFECC5"/>
<path d="M812.1 814.8C815.1 823.9 811.2 835.5 803 841.6C794.8 847.6 782.3 848 774.1 842.1C765.8 836.2 761.8 824 764.9 814.8C768.1 805.5 778.6 799.2 788.8 799.3C799 799.3 809 805.8 812.1 814.8Z" fill="#FFECC5"/>
<path d="M456.2 461.5C458.4 468.2 455.3 476.7 449.4 480.9C443.5 485.1 434.7 485 428.9 480.8C423.2 476.6 420.4 468.3 422.5 461.7C424.7 455 431.9 450.1 439.2 450C446.5 449.9 454 454.8 456.2 461.5Z" fill="#FFECC5"/>
<path d="M407.6 556.4C410.3 564.4 407.9 574.5 401.4 579.2C394.9 584 384.3 583.5 377.4 578.3C370.4 573.2 367.1 563.5 369.6 555.8C372.1 548.1 380.6 542.4 388.7 542.4C396.9 542.5 404.8 548.4 407.6 556.4Z" fill="#FFECC5" fill-opacity="0.69"/>
<path d="M539.369 786C541.569 792.7 538.769 800.9 533.069 805C527.369 809 518.869 809 513.469 804.9C507.969 800.9 505.669 793 507.769 786.3C509.869 779.6 516.469 774.1 523.369 774C530.169 774 537.269 779.2 539.369 786Z" fill="#FFECC5"/>
<path d="M677.2 484C679.1 490.1 676.4 497.6 671.2 501.3C665.9 505.1 658.2 505 653.1 501.3C648 497.6 645.6 490.2 647.5 484.2C649.4 478.1 655.7 473.3 662.2 473.2C668.6 473.1 675.2 477.8 677.2 484Z" fill="#FFECC5"/>
<path d="M23.4 669.4C26 677.1 23.4 686.9 17.1 691.5C10.7 696.1 0.59998 695.5 -5.90002 690.6C-12.5 685.7 -15.5 676.5 -13.1 669.1C-10.7 661.7 -2.80002 656 4.99998 656C12.9 656 20.8 661.7 23.4 669.4Z" fill="#FFECC5"/>
<path d="M894.2 782.6C896.6 790.3 893.2 799.8 886.6 804.5C880 809.2 870.3 809 863.9 804.3C857.5 799.7 854.4 790.5 856.8 782.8C859.2 775.1 867.1 768.9 875.2 768.8C883.4 768.8 891.7 774.8 894.2 782.6Z" fill="#FFECC5"/>
<path d="M36.7 805.7C38.9 812.4 36.1 820.9 30.3 825.1C24.6 829.2 15.7 829.1 10.2 825C4.69998 820.8 2.49998 812.7 4.69998 806C6.89998 799.3 13.4 794.1 20.3 793.9C27.2 793.8 34.5 798.9 36.7 805.7Z" fill="#FFECC5"/>
<path d="M758.8 707.2C761 714 757.6 722.7 751.4 727.2C745.1 731.7 736 732.1 730.3 727.9C724.6 723.7 722.3 714.9 724.7 707.9C727 700.8 734 695.5 741.4 695.4C748.8 695.2 756.6 700.3 758.8 707.2Z" fill="#FFECC5" fill-opacity="0.44"/>
<path d="M358.497 779.201C361.797 789.301 357.397 801.901 348.597 808.201C339.797 814.601 326.497 814.601 318.097 808.401C309.597 802.201 305.897 789.701 309.197 779.701C312.497 769.601 322.897 762.101 333.497 762.001C344.197 761.901 355.197 769.201 358.497 779.201Z" fill="#FFECC5"/>
</g>
</g>
</g>
<defs>
<clipPath id="clip0_7_2">
<path d="M0 785C0 848.513 51.4873 900 115 900H785C848.513 900 900 848.513 900 785V115C900 51.4872 848.513 0 785 0H115C51.4872 0 0 51.4873 0 115V785Z" fill="white"/>
</clipPath>
<clipPath id="clip1_7_2">
<rect width="1025" height="1169" fill="white" transform="matrix(1 0 0 -1 -14 1169)"/>
</clipPath>
<clipPath id="clip2_7_2">
<rect width="900" height="450" fill="white" transform="translate(-3 454)"/>
</clipPath>
</defs>
</svg>
