<svg width="185" height="44" viewBox="0 0 185 44" fill="none" xmlns="http://www.w3.org/2000/svg">
<g filter="url(#filter0_d_47_106)">
<path d="M43.5713 5.02699C42.3043 2.92359 40.0843 1.28528 37.5341 0.514763C32.7934 -0.917469 27.5385 0.720325 24.2943 4.41254C24.1938 4.52683 24.0963 4.64414 24 4.76308C23.9038 4.64431 23.8062 4.52683 23.7058 4.41254C20.4617 0.720411 15.2068 -0.917383 10.466 0.514849C7.91567 1.28528 5.69573 2.92359 4.42876 5.02699C4.12317 5.54029 4.03319 6.18835 4.24528 6.79652C4.62598 7.88827 5.81965 8.46465 6.91149 8.08395C9.53937 7.16752 12.6516 6.91813 15.0771 8.49783C17.0065 9.75457 18.0469 11.8985 18.8845 13.9916C18.9957 14.2694 19.1032 14.5462 19.2089 14.82C19.6584 15.9849 20.6701 16.9058 21.9831 17.1821C22.6799 17.3287 23.372 17.2743 24 17.0593C24.6281 17.2743 25.3203 17.3287 26.017 17.1821C27.3299 16.9058 28.3417 15.9849 28.7911 14.82C28.8967 14.5462 29.0044 14.2694 29.1155 13.9916C29.9531 11.8985 30.9935 9.75457 32.9229 8.49783C35.3484 6.91804 38.4605 7.16752 41.0885 8.08395C42.1802 8.46465 43.3739 7.88827 43.7547 6.79652C43.9669 6.18835 43.8769 5.54029 43.5713 5.02699Z" fill="#4C9462"/>
<path opacity="0.15" d="M25.2024 15.4919C24.5744 15.707 23.8822 15.7613 23.1854 15.6147C21.8726 15.3384 20.8608 14.4175 20.4112 13.2526C20.3056 12.9788 20.1979 12.702 20.0869 12.4242C19.2493 10.3311 18.2088 8.18718 16.2794 6.93043C13.8539 5.35064 10.7418 5.60012 8.11384 6.51656C7.02209 6.89726 5.82842 6.32088 5.44763 5.22913C5.23554 4.62086 5.32543 3.97289 5.63111 3.45959C5.63377 3.45521 5.63661 3.45082 5.63927 3.44644C5.17564 3.935 4.76778 4.4642 4.42867 5.02709C4.12308 5.54039 4.03311 6.18845 4.2452 6.79663C4.6259 7.88837 5.81957 8.46476 6.9114 8.08405C9.53928 7.16762 12.6515 6.91823 15.077 8.49793C17.0065 9.75468 18.0468 11.8986 18.8845 13.9917C18.9957 14.2695 19.1032 14.5463 19.2088 14.8201C19.6583 15.985 20.6701 16.906 21.983 17.1822C22.6798 17.3288 23.3719 17.2744 24 17.0594C24.628 17.2745 25.3202 17.3288 26.0169 17.1822C27.2949 16.9132 28.2861 16.0327 28.7526 14.9115C28.3142 15.2475 27.7959 15.4933 27.2193 15.6147C26.5227 15.7614 25.8304 15.707 25.2024 15.4919ZM42.291 6.51647C39.6632 5.60003 36.5509 5.35064 34.1254 6.93034C33.1213 7.58433 32.3593 8.47971 31.74 9.48226C32.0946 9.11633 32.4848 8.78333 32.9231 8.49793C35.3486 6.91814 38.4607 7.16762 41.0886 8.08405C42.1803 8.46476 43.374 7.88837 43.7548 6.79663C43.7951 6.68104 43.8244 6.56382 43.8435 6.44652C43.3712 6.66024 42.8193 6.70063 42.291 6.51647Z" fill="black"/>
<path opacity="0.1" d="M21.241 9.03306C20.999 9.03306 20.7627 8.91137 20.6262 8.69043C17.5093 3.63946 12.0137 4.18774 10.159 4.8254C9.78241 4.95482 9.37171 4.7545 9.2422 4.37766C9.1127 4.00091 9.3131 3.59039 9.68994 3.46088C10.9202 3.0379 13.0237 2.75052 15.2377 3.21244C18.0186 3.79251 20.3065 5.42472 21.8541 7.93263C22.0634 8.27174 21.9581 8.71621 21.6191 8.92547C21.5012 8.99834 21.3702 9.03306 21.241 9.03306Z" fill="black"/>
<path opacity="0.1" d="M26.7591 9.03303C26.6298 9.03303 26.4989 8.99831 26.3809 8.92535C26.0417 8.71609 25.9366 8.27163 26.1458 7.93252C27.6935 5.4247 29.9814 3.79249 32.7622 3.21232C34.9762 2.75041 37.0797 3.03787 38.31 3.46077C38.6869 3.59036 38.8872 4.0008 38.7578 4.37755C38.6282 4.7543 38.2179 4.9547 37.841 4.82528C35.9864 4.18771 30.4907 3.63926 27.3738 8.69031C27.2374 8.91134 27.0011 9.03303 26.7591 9.03303Z" fill="black"/>
<path d="M28.3176 43.4927H19.6825C19.0088 43.4927 18.4769 42.9202 18.5267 42.2482L20.4333 16.4778H27.5667L29.4733 42.2482C29.523 42.92 28.9914 43.4927 28.3176 43.4927Z" fill="#B07C57"/>
<path d="M28.1592 24.487H19.8407L19.7339 25.9299H28.266L28.1592 24.487ZM29.1125 37.3716H18.8875L18.7807 38.8144H29.2194L29.1125 37.3716ZM28.6359 30.9293H19.3642L19.2574 32.3722H28.7428L28.6359 30.9293Z" fill="#65513C"/>
<path opacity="0.2" d="M21.2216 42.3083C20.5478 42.3083 20.016 41.7358 20.0657 41.0638L21.8848 16.4776H20.4333L18.5267 42.248C18.4769 42.9199 19.0087 43.4925 19.6825 43.4925H28.3176C28.9711 43.4925 29.4892 42.9537 29.4747 42.3083H21.2216V42.3083Z" fill="black"/>
<path d="M44.0942 20.326C43.2645 16.194 40.2885 12.7526 36.4307 11.1309C32.5701 9.50795 27.6915 9.92518 24.4297 12.6667C24.2731 12.7984 24.13 12.9403 24 13.0902C23.87 12.9403 23.7269 12.7984 23.5703 12.6667C20.3086 9.92518 15.4299 9.50787 11.5693 11.1309C7.71157 12.7526 4.73547 16.1939 3.90575 20.326C3.38128 22.938 3.7777 25.6685 5.03411 27.7782C5.34236 28.29 5.87131 28.6751 6.50759 28.7752C7.64978 28.9549 8.72133 28.1746 8.90094 27.0324C9.30347 24.4729 10.3842 21.8887 12.6796 20.4895C14.7899 19.2032 17.3403 19.0579 19.7596 19.2754C20.0566 19.3021 20.3518 19.3343 20.6438 19.3705C21.8665 19.522 23.1371 19.0778 23.9999 18.0796C24.8628 19.0778 26.1335 19.522 27.3561 19.3705C27.6481 19.3343 27.9432 19.3021 28.2403 19.2754C30.6596 19.0579 33.21 19.2032 35.3203 20.4895C37.6158 21.8887 38.6963 24.4729 39.099 27.0324C39.2786 28.1746 40.3501 28.9549 41.4923 28.7752C42.1286 28.6751 42.6574 28.2899 42.9658 27.7782C44.2222 25.6685 44.6187 22.9381 44.0942 20.326Z" fill="#77E0C1"/>
<path opacity="0.1" d="M7.75815 27.1954C7.12187 27.0953 6.59301 26.7101 6.28467 26.1984C5.02826 24.0887 4.63183 21.3582 5.15631 18.7462C5.47746 17.1468 6.1213 15.6517 7.01221 14.3248C5.46826 15.9916 4.36199 18.0539 3.90575 20.3261C3.38127 22.938 3.7777 25.6685 5.03411 27.7783C5.34236 28.29 5.87131 28.6752 6.50759 28.7752C7.6417 28.9536 8.70578 28.1854 8.89665 27.0563C8.5492 27.2031 8.1581 27.2583 7.75815 27.1954ZM42.7429 27.1954C41.6007 27.3751 40.5292 26.5948 40.3495 25.4526C39.947 22.8931 38.8663 20.3089 36.5709 18.9097C34.4606 17.6234 31.9101 17.4781 29.4908 17.6956C29.1938 17.7223 28.8986 17.7545 28.6066 17.7907C27.384 17.9422 25.1194 17.4979 24.2565 16.4998C23.3937 17.4979 21.7392 17.7522 20.5167 17.6007C20.2246 17.5645 19.9295 17.5323 19.6324 17.5057C17.2131 17.2882 16.0404 17.6235 13.9301 18.9099C12.9144 19.529 12.1368 20.3804 11.5504 21.3588C11.8892 21.0353 12.2644 20.7429 12.6796 20.4897C14.7899 19.2034 17.3403 19.0581 19.7596 19.2756C20.0566 19.3023 20.3518 19.3344 20.6438 19.3706C21.8665 19.5221 23.1371 19.0779 24 18.0797C24.8628 19.0779 26.1335 19.5221 27.3561 19.3706C27.6481 19.3344 27.9432 19.3022 28.2403 19.2756C30.6596 19.0581 33.21 19.2035 35.3203 20.4897C37.6158 21.8888 38.6964 24.473 39.099 27.0325C39.2787 28.1747 40.3501 28.955 41.4923 28.7753C42.1286 28.6753 42.6575 28.29 42.9658 27.7784C43.1186 27.5218 43.2582 27.2557 43.3854 26.9821C43.1888 27.0852 42.973 27.1591 42.7429 27.1954Z" fill="black"/>
<path opacity="0.1" d="M6.84635 24.552C6.44795 24.552 6.12491 24.2289 6.12491 23.8305C6.12491 20.8602 7.64875 17.9252 10.2013 15.9796C12.8875 13.9323 16.2404 13.256 19.4 14.1245C19.7842 14.2301 20.0101 14.6272 19.9044 15.0114C19.7988 15.3956 19.4018 15.6211 19.0176 15.5158C16.2958 14.7676 13.401 15.3549 11.076 17.1272C8.87928 18.8016 7.56771 21.3076 7.56771 23.8306C7.5678 24.2289 7.24476 24.552 6.84635 24.552Z" fill="black"/>
<path opacity="0.1" d="M41.1537 24.552C40.7553 24.552 40.4323 24.2289 40.4323 23.8305C40.4323 21.3075 39.1208 18.8015 36.924 17.1271C34.599 15.3549 31.7042 14.7676 28.9823 15.5157C28.5979 15.6213 28.2011 15.3954 28.0955 15.0113C27.9899 14.627 28.2157 14.23 28.5999 14.1244C31.7598 13.2562 35.1125 13.9321 37.7986 15.9795C40.3511 17.9252 41.8749 20.8602 41.8749 23.8305C41.8752 24.2289 41.5521 24.552 41.1537 24.552Z" fill="black"/>
<path d="M13.6779 43.9993C17.5826 43.9993 20.748 40.8339 20.748 36.9292C20.748 33.0244 17.5826 29.859 13.6779 29.859C9.77312 29.859 6.6077 33.0244 6.6077 36.9292C6.6077 40.8339 9.77312 43.9993 13.6779 43.9993Z" fill="#FF6361"/>
<path d="M18.6771 31.9298C13.0533 31.677 8.42511 36.3053 8.67802 41.9289C14.3018 42.1819 18.9299 37.5537 18.6771 31.9298Z" fill="white"/>
<path d="M8.67794 41.9291C9.5209 42.772 10.5239 43.3572 11.5891 43.6855C11.8155 42.434 11.4459 41.096 10.4785 40.1285C9.5111 39.161 8.17297 38.7915 6.92155 39.0179C7.24983 40.0831 7.83498 41.086 8.67794 41.9291Z" fill="#6DABE4"/>
<path d="M18.6771 31.9299C19.52 32.7728 20.1052 33.7758 20.4335 34.8409C19.182 35.0673 17.8438 34.6977 16.8765 33.7303C15.9091 32.7629 15.5395 31.4249 15.766 30.1735C16.8311 30.5018 17.8341 31.087 18.6771 31.9299Z" fill="#6DABE4"/>
<path opacity="0.2" d="M10.3904 40.6562C7.63646 37.9022 7.62985 33.442 10.3694 30.6792C9.76126 31.0014 9.18995 31.4179 8.67794 31.93C5.91677 34.6912 5.91677 39.1679 8.67794 41.9291C11.4391 44.6903 15.9159 44.6903 18.677 41.9291C18.6842 41.9219 18.6908 41.9142 18.698 41.907C16.0269 43.3219 12.6396 42.9053 10.3904 40.6562Z" fill="black"/>
</g>
<g filter="url(#filter1_d_47_106)">
<path d="M61.84 38.4C59.92 38.4 58.2133 38.1333 56.72 37.6C55.2267 37.0667 53.8 36.1867 52.44 34.96C52.1467 34.7467 51.92 34.4933 51.76 34.2C51.6267 33.88 51.56 33.56 51.56 33.24C51.56 32.7333 51.7467 32.28 52.12 31.88C52.4933 31.48 52.96 31.28 53.52 31.28C53.9467 31.28 54.3467 31.4267 54.72 31.72C55.7333 32.6533 56.7867 33.36 57.88 33.84C59 34.32 60.3067 34.56 61.8 34.56C62.8667 34.56 63.84 34.3867 64.72 34.04C65.6267 33.6933 66.3467 33.2267 66.88 32.64C67.4133 32.0533 67.68 31.3733 67.68 30.6C67.68 29.64 67.4 28.8533 66.84 28.24C66.3067 27.6 65.52 27.08 64.48 26.68C63.4667 26.2533 62.24 25.8933 60.8 25.6C59.4667 25.36 58.2667 25.0267 57.2 24.6C56.16 24.1733 55.2667 23.64 54.52 23C53.7733 22.3333 53.2 21.5467 52.8 20.64C52.4 19.7333 52.2 18.68 52.2 17.48C52.2 15.8533 52.6267 14.4533 53.48 13.28C54.3333 12.1067 55.4933 11.2 56.96 10.56C58.4267 9.92 60.08 9.6 61.92 9.6C63.6 9.6 65.1733 9.86666 66.64 10.4C68.1067 10.9067 69.2933 11.6 70.2 12.48C70.84 13.04 71.16 13.64 71.16 14.28C71.16 14.76 70.96 15.2133 70.56 15.64C70.1867 16.04 69.7467 16.24 69.24 16.24C68.8667 16.24 68.5467 16.1333 68.28 15.92C67.8533 15.4667 67.28 15.0667 66.56 14.72C65.84 14.3467 65.0667 14.04 64.24 13.8C63.44 13.56 62.6667 13.44 61.92 13.44C60.72 13.44 59.6933 13.6133 58.84 13.96C57.9867 14.28 57.3333 14.7333 56.88 15.32C56.4267 15.88 56.2 16.5467 56.2 17.32C56.2 18.2267 56.4533 18.9733 56.96 19.56C57.4933 20.1467 58.2267 20.6267 59.16 21C60.0933 21.3467 61.16 21.6667 62.36 21.96C63.8267 22.28 65.1333 22.64 66.28 23.04C67.4533 23.44 68.44 23.96 69.24 24.6C70.04 25.2133 70.6533 25.9867 71.08 26.92C71.5067 27.8533 71.72 29.0133 71.72 30.4C71.72 32 71.2667 33.4 70.36 34.6C69.4533 35.8 68.2533 36.7333 66.76 37.4C65.2933 38.0667 63.6533 38.4 61.84 38.4ZM97.7584 27.48C97.7584 29.6133 97.2918 31.5067 96.3584 33.16C95.4251 34.7867 94.1584 36.0667 92.5584 37C90.9584 37.9333 89.1584 38.4 87.1584 38.4C85.1584 38.4 83.3584 37.9333 81.7584 37C80.1584 36.0667 78.8784 34.7867 77.9184 33.16C76.9851 31.5067 76.5184 29.6133 76.5184 27.48C76.5184 25.32 76.9851 23.4267 77.9184 21.8C78.8784 20.1467 80.1584 18.8533 81.7584 17.92C83.3584 16.96 85.1584 16.48 87.1584 16.48C89.1584 16.48 90.9584 16.96 92.5584 17.92C94.1584 18.8533 95.4251 20.1467 96.3584 21.8C97.2918 23.4267 97.7584 25.32 97.7584 27.48ZM93.7584 27.48C93.7584 26.0133 93.4651 24.7467 92.8784 23.68C92.2918 22.5867 91.4918 21.7333 90.4784 21.12C89.4918 20.48 88.3851 20.16 87.1584 20.16C85.9318 20.16 84.8118 20.48 83.7984 21.12C82.7851 21.7333 81.9851 22.5867 81.3984 23.68C80.8118 24.7467 80.5184 26.0133 80.5184 27.48C80.5184 28.8933 80.8118 30.1467 81.3984 31.24C81.9851 32.3333 82.7851 33.1867 83.7984 33.8C84.8118 34.4133 85.9318 34.72 87.1584 34.72C88.3851 34.72 89.4918 34.4133 90.4784 33.8C91.4918 33.1867 92.2918 32.3333 92.8784 31.24C93.4651 30.1467 93.7584 28.8933 93.7584 27.48ZM119.366 16.96C119.926 16.96 120.393 17.16 120.766 17.56C121.166 17.9333 121.366 18.4133 121.366 19V29.52C121.366 32.2933 120.593 34.4667 119.046 36.04C117.499 37.5867 115.313 38.36 112.486 38.36C109.686 38.36 107.513 37.5867 105.966 36.04C104.446 34.4667 103.686 32.2933 103.686 29.52V19C103.686 18.4133 103.873 17.9333 104.246 17.56C104.619 17.16 105.099 16.96 105.686 16.96C106.246 16.96 106.713 17.16 107.086 17.56C107.486 17.9333 107.686 18.4133 107.686 19V29.52C107.686 31.2533 108.086 32.5467 108.886 33.4C109.713 34.2533 110.913 34.68 112.486 34.68C114.086 34.68 115.299 34.2533 116.126 33.4C116.953 32.5467 117.366 31.2533 117.366 29.52V19C117.366 18.4133 117.553 17.9333 117.926 17.56C118.299 17.16 118.779 16.96 119.366 16.96ZM132.648 35.96C132.648 36.5467 132.448 37.04 132.048 37.44C131.675 37.8133 131.208 38 130.648 38C130.088 38 129.608 37.8133 129.208 37.44C128.835 37.04 128.648 36.5467 128.648 35.96V10.44C128.648 9.85333 128.848 9.37333 129.248 9C129.648 8.6 130.128 8.4 130.688 8.4C131.275 8.4 131.741 8.6 132.088 9C132.461 9.37333 132.648 9.85333 132.648 10.44V35.96ZM157.242 16.64C157.828 16.64 158.308 16.84 158.682 17.24C159.055 17.6133 159.242 18.0933 159.242 18.68V35.96C159.242 36.5467 159.055 37.04 158.682 37.44C158.308 37.8133 157.828 38 157.242 38C156.682 38 156.202 37.8133 155.802 37.44C155.428 37.04 155.242 36.5467 155.242 35.96V33.08L156.082 33.2C156.082 33.68 155.882 34.2133 155.482 34.8C155.108 35.3867 154.588 35.96 153.922 36.52C153.255 37.0533 152.468 37.5067 151.562 37.88C150.655 38.2267 149.682 38.4 148.642 38.4C146.802 38.4 145.148 37.9333 143.682 37C142.215 36.04 141.055 34.7333 140.202 33.08C139.348 31.4267 138.922 29.5467 138.922 27.44C138.922 25.28 139.348 23.3867 140.202 21.76C141.055 20.1067 142.202 18.8133 143.642 17.88C145.108 16.9467 146.735 16.48 148.522 16.48C149.668 16.48 150.722 16.6667 151.682 17.04C152.668 17.4133 153.522 17.8933 154.242 18.48C154.962 19.0667 155.508 19.6933 155.882 20.36C156.282 21 156.482 21.6133 156.482 22.2L155.242 22.32V18.68C155.242 18.12 155.428 17.64 155.802 17.24C156.202 16.84 156.682 16.64 157.242 16.64ZM149.082 34.72C150.335 34.72 151.442 34.4 152.402 33.76C153.362 33.12 154.108 32.2533 154.642 31.16C155.175 30.04 155.442 28.8 155.442 27.44C155.442 26.0533 155.175 24.8133 154.642 23.72C154.108 22.6267 153.362 21.76 152.402 21.12C151.442 20.48 150.335 20.16 149.082 20.16C147.855 20.16 146.762 20.48 145.802 21.12C144.868 21.76 144.122 22.6267 143.562 23.72C143.028 24.8133 142.762 26.0533 142.762 27.44C142.762 28.8 143.028 30.04 143.562 31.16C144.122 32.2533 144.868 33.12 145.802 33.76C146.762 34.4 147.855 34.72 149.082 34.72ZM175.565 16.48C177.005 16.48 178.285 16.64 179.405 16.96C180.525 17.2533 181.392 17.68 182.005 18.24C182.645 18.7733 182.965 19.4 182.965 20.12C182.965 20.5733 182.832 21 182.565 21.4C182.299 21.7733 181.899 21.96 181.365 21.96C180.992 21.96 180.672 21.8933 180.405 21.76C180.165 21.6267 179.939 21.4667 179.725 21.28C179.512 21.0933 179.245 20.9067 178.925 20.72C178.632 20.56 178.192 20.4267 177.605 20.32C177.045 20.2133 176.539 20.16 176.085 20.16C174.672 20.16 173.445 20.48 172.405 21.12C171.392 21.76 170.592 22.6267 170.005 23.72C169.445 24.8133 169.165 26.0533 169.165 27.44C169.165 28.8267 169.445 30.0667 170.005 31.16C170.592 32.2533 171.379 33.12 172.365 33.76C173.379 34.4 174.552 34.72 175.885 34.72C176.685 34.72 177.339 34.6667 177.845 34.56C178.352 34.4267 178.792 34.2667 179.165 34.08C179.565 33.84 179.899 33.6 180.165 33.36C180.459 33.0933 180.859 32.96 181.365 32.96C181.952 32.96 182.392 33.1467 182.685 33.52C183.005 33.8667 183.165 34.3067 183.165 34.84C183.165 35.4267 182.805 36 182.085 36.56C181.392 37.0933 180.459 37.5333 179.285 37.88C178.112 38.2267 176.819 38.4 175.405 38.4C173.325 38.4 171.512 37.92 169.965 36.96C168.445 36 167.259 34.6933 166.405 33.04C165.579 31.3867 165.165 29.52 165.165 27.44C165.165 25.3333 165.605 23.4667 166.485 21.84C167.365 20.1867 168.592 18.88 170.165 17.92C171.739 16.96 173.539 16.48 175.565 16.48Z" fill="white"/>
</g>
<defs>
<filter id="filter0_d_47_106" x="-1" y="-6.10352e-05" width="47" height="44.0001" filterUnits="userSpaceOnUse" color-interpolation-filters="sRGB">
<feFlood flood-opacity="0" result="BackgroundImageFix"/>
<feColorMatrix in="SourceAlpha" type="matrix" values="0 0 0 0 0 0 0 0 0 0 0 0 0 0 0 0 0 0 127 0" result="hardAlpha"/>
<feOffset dx="-3"/>
<feComposite in2="hardAlpha" operator="out"/>
<feColorMatrix type="matrix" values="0 0 0 0 0 0 0 0 0 0 0 0 0 0 0 0 0 0 0.25 0"/>
<feBlend mode="normal" in2="BackgroundImageFix" result="effect1_dropShadow_47_106"/>
<feBlend mode="normal" in="SourceGraphic" in2="effect1_dropShadow_47_106" result="shape"/>
</filter>
<filter id="filter1_d_47_106" x="48.56" y="8.39999" width="134.605" height="30" filterUnits="userSpaceOnUse" color-interpolation-filters="sRGB">
<feFlood flood-opacity="0" result="BackgroundImageFix"/>
<feColorMatrix in="SourceAlpha" type="matrix" values="0 0 0 0 0 0 0 0 0 0 0 0 0 0 0 0 0 0 127 0" result="hardAlpha"/>
<feOffset dx="-3"/>
<feComposite in2="hardAlpha" operator="out"/>
<feColorMatrix type="matrix" values="0 0 0 0 0 0 0 0 0 0 0 0 0 0 0 0 0 0 0.25 0"/>
<feBlend mode="normal" in2="BackgroundImageFix" result="effect1_dropShadow_47_106"/>
<feBlend mode="normal" in="SourceGraphic" in2="effect1_dropShadow_47_106" result="shape"/>
</filter>
</defs>
</svg>
