<svg id="visual" viewBox="0 0 1920 1080" width="1920" height="1080" xmlns="http://www.w3.org/2000/svg" xmlns:xlink="http://www.w3.org/1999/xlink" version="1.1"><rect x="0" y="0" width="1920" height="1080" fill="#ec7722"></rect><path d="M0 657L45.7 654.7C91.3 652.3 182.7 647.7 274.2 604.7C365.7 561.7 457.3 480.3 548.8 438.8C640.3 397.3 731.7 395.7 823 441.7C914.3 487.7 1005.7 581.3 1097 596C1188.3 610.7 1279.7 546.3 1371.2 537.3C1462.7 528.3 1554.3 574.7 1645.8 563.3C1737.3 552 1828.7 483 1874.3 448.5L1920 414L1920 1081L1874.3 1081C1828.7 1081 1737.3 1081 1645.8 1081C1554.3 1081 1462.7 1081 1371.2 1081C1279.7 1081 1188.3 1081 1097 1081C1005.7 1081 914.3 1081 823 1081C731.7 1081 640.3 1081 548.8 1081C457.3 1081 365.7 1081 274.2 1081C182.7 1081 91.3 1081 45.7 1081L0 1081Z" fill="#F5A623" stroke-linecap="round" stroke-linejoin="miter"></path></svg>