<svg width="428" height="926" viewBox="0 0 428 926" fill="none" xmlns="http://www.w3.org/2000/svg">
<g clip-path="url(#clip0_41_33)">
<path d="M806 934H-82V107H806V934Z" fill="#F7BE4B"/>
<path d="M-234 163.868L-218.583 160.128C-203.167 156.42 -172.333 148.938 -141.5 147.101C-110.667 145.264 -79.8333 149.072 -49 153.581C-18.1667 158.09 12.6667 163.301 43.5 166.874C74.3333 170.448 105.167 172.319 136 168.277C166.833 164.202 207.167 161.333 238 161.5C268.833 161.667 290.167 164.87 321 172.051C351.833 179.232 405.667 159.229 436.5 161.5C467.333 163.805 475.167 188.351 506 180.335C536.833 172.319 567.667 155.752 598.5 148.337C629.333 140.922 660.167 142.726 675.583 143.594L691 144.496V63H675.583C660.167 63 629.333 63 598.5 63C567.667 63 536.833 63 506 63C475.167 63 460.333 75.5 429.5 75.5C398.667 75.5 351.833 63 321 63C290.167 63 259.333 63 228.5 63C197.667 63 166.833 63 136 63C105.167 63 74.3333 63 43.5 63C12.6667 63 -18.1667 63 -49 63C-79.8333 63 -110.667 63 -141.5 63C-172.333 63 -203.167 63 -218.583 63H-234V163.868Z" fill="#FFECC5"/>
<path d="M-185 82L-168.523 78.7949C-152.144 75.5897 -119.189 69.1795 -86.3333 69.5534C-53.4773 69.8739 -20.5227 77.0321 12.3333 75.5897C45.1893 74.1474 78.144 64.2115 111 62.3953C143.856 60.6325 176.811 67.0427 209.667 67.9509C242.523 68.8056 275.477 64.2115 308.333 65.4402C341.189 66.6688 377.144 75.3056 410 76C449 76.8243 472.811 69.5534 505.667 67.5769C538.523 65.6004 571.477 67.4167 604.333 70.2479C637.189 73.0791 670.144 77.032 686.523 78.9551L703 80.9316V-43H686.523C670.144 -43 637.189 -43 604.333 -43C571.477 -43 538.523 -43 505.667 -43C472.811 -43 439.856 -43 407 -43C374.144 -43 341.189 -43 308.333 -43C275.477 -43 242.523 -43 209.667 -43C176.811 -43 143.856 -43 111 -43C78.144 -43 45.1893 -43 12.3333 -43C-20.5227 -43 -53.4773 -43 -86.3333 -43C-119.189 -43 -152.144 -43 -168.523 -43H-185V82Z" fill="#4A62AD"/>
</g>
<defs>
<clipPath id="clip0_41_33">
<rect width="888" height="1012.75" fill="white" transform="matrix(1 0 0 -1 -215 940.894)"/>
</clipPath>
</defs>
</svg>
